<svg xmlns="http://www.w3.org/2000/svg" viewBox="0 0 169.77 46.02"><g id="Layer_2" data-name="Layer 2"><g id="Layer_1-2" data-name="Layer 1"><path d="M35.75,93.05c-.4.16-.8.31-1.22.45a3.56,3.56,0,0,1-1.37.2,4.5,4.5,0,0,1-1.67-.42A11.45,11.45,0,0,1,29.58,92a17.38,17.38,0,0,1-1.82-1.77,18.88,18.88,0,0,1-2.22-2.76,17.29,17.29,0,0,1-1.45-2.85,4.08,4.08,0,0,0-.25-.7c-.16-.37-.32-.78-.48-1.24s-.29-.8-.38-1c-.15-.47-.33-1.12-.53-2s-.36-1.67-.48-2.52c-.23-1.33-.38-2.4-.47-3.21a15.44,15.44,0,0,1-.11-2.16,11.37,11.37,0,0,1,.21-2c.13-.68.31-1.54.53-2.58a3.4,3.4,0,0,1,.92-1.78,3.65,3.65,0,0,1,1.71-1,3.08,3.08,0,0,1,1.94.12,4.31,4.31,0,0,1,1.67,1.13,9.24,9.24,0,0,1,1.41,2,11.06,11.06,0,0,1,.94,2.41A7.23,7.23,0,0,1,31,72.52c0,.46-.17.75-.43.88a2.47,2.47,0,0,1-1.12.21,4.66,4.66,0,0,1-.8-.31c-.07,0-.07-.12,0-.21A7.48,7.48,0,0,0,28.42,72c-.12-.5-.26-1-.42-1.57a9.49,9.49,0,0,0-.45-1.26q-.9-1.41-1.29-2a1.13,1.13,0,0,0-.88-.59.52.52,0,0,0-.41.23,3.43,3.43,0,0,0-.42.94,9.54,9.54,0,0,0-.5,2.87,21.42,21.42,0,0,0,.13,4c.2,1.71.41,3.2.64,4.46a13.66,13.66,0,0,0,1.09,3.47c0,.11.17.46.39,1a2.21,2.21,0,0,1,.44.63,6.94,6.94,0,0,1,.46,1,18.67,18.67,0,0,0,2.2,3,14.69,14.69,0,0,0,2.5,2.33,4,4,0,0,0,2.06.89,1.91,1.91,0,0,0,1.17-.78,9.48,9.48,0,0,0,1.08-1.78c.35-.73.69-1.48,1-2.27a13.1,13.1,0,0,0,.65-1.8,7.42,7.42,0,0,0,.29-1.4,5.08,5.08,0,0,1,.24-.9,2,2,0,0,1,.43-.77c.18-.34.29-.52.35-.54s.15,0,.3.2a1.91,1.91,0,0,1,.39,1.29,6.59,6.59,0,0,1-.28,1.94,6.78,6.78,0,0,1-.14,1,4.25,4.25,0,0,1-.39,1.12,11.57,11.57,0,0,1-.63,2.27,13,13,0,0,1-1.15,2.33A5.16,5.16,0,0,1,35.75,93.05Z" transform="translate(-21.38 -47.69)" fill="#6c6c6c"/><path d="M46,81.58a1.57,1.57,0,0,1-.78.25q-.36,0-.9-.09A5.15,5.15,0,0,1,42.68,81a2.34,2.34,0,0,1-.89-1.08,2.35,2.35,0,0,0-.4-.8c-.18-.05-.26-.1-.23-.16a.67.67,0,0,0,0-.26q.2-.12-.09-.45a2.93,2.93,0,0,1-.45-1.33,10.92,10.92,0,0,1-.2-2.2,10.39,10.39,0,0,1,.06-1.25,16.36,16.36,0,0,1,.21-1.64,10.28,10.28,0,0,1,.34-1.42,9.64,9.64,0,0,1,.84-1.92A6.07,6.07,0,0,1,43,67.15a5.82,5.82,0,0,1,.91-.78,1.57,1.57,0,0,1,1.11,0,3.14,3.14,0,0,1,1.6.12,3.26,3.26,0,0,1,1.28,1.09A9,9,0,0,1,49.09,70a10.34,10.34,0,0,1,.36,4.14A10.32,10.32,0,0,1,49,76.86a15.6,15.6,0,0,1-1,2.17,7.82,7.82,0,0,1-.85,1.45A5.88,5.88,0,0,1,46,81.58Zm1-5.48a13.86,13.86,0,0,0,.25-2.48A13.67,13.67,0,0,0,47,71a3.88,3.88,0,0,0-.39-1A7.15,7.15,0,0,0,46,69c-.23-.3-.42-.44-.58-.4a1.78,1.78,0,0,0-1.06.44,3,3,0,0,0-.83,1.4A9.76,9.76,0,0,0,43,73.68a31.83,31.83,0,0,0,.28,3.82,3.06,3.06,0,0,0,.95,2c.48.36,1,.28,1.54-.25A6.51,6.51,0,0,0,47.08,76.1Z" transform="translate(-21.38 -47.69)" fill="#6c6c6c"/><path d="M67.31,70.63a2.32,2.32,0,0,1-1.32.16,2.61,2.61,0,0,1-1.2-.73,9.58,9.58,0,0,1-.68-1,8.72,8.72,0,0,1-.55-1.17,1.68,1.68,0,0,1-.18-.79.73.73,0,0,0-.08-.57q-.16-.37-.33-.81c-.22-.48-.44-.71-.67-.69a1.4,1.4,0,0,0-.8.58L60.21,67.3c-.53.72-1.07,1.49-1.63,2.32s-1.06,1.67-1.52,2.51a5,5,0,0,0-.45,1.7c0,.35-.08.56-.28.63a.52.52,0,0,1-.48.21,6.68,6.68,0,0,1-.73-.2l-.72-.37a1.87,1.87,0,0,1-.49-.29,5.45,5.45,0,0,1-.19-.81c-.08-.41-.14-.84-.18-1.27s-.06-.71-.06-.85.18-.21.17-.48a4,4,0,0,1,.11-1,6.16,6.16,0,0,1-.07-1.33c0-.57,0-1.09.05-1.54a9.26,9.26,0,0,0,.14-1.73,6.06,6.06,0,0,0-.29-1.56.32.32,0,0,1,0-.3.35.35,0,0,1,.21-.23.66.66,0,0,1,.62-.43,1.64,1.64,0,0,1,1,.28,2.57,2.57,0,0,1,1.22,1.6,8.17,8.17,0,0,1-.16,3.09c0,.46,0,.8,0,1a1.5,1.5,0,0,0,.07.54c.37-.53.68-1,.92-1.34s.43-.63.58-.83a10.44,10.44,0,0,1,.58-1c.32-.48.66-1,1-1.46a4.26,4.26,0,0,1,.91-1q.24-.26.51-.51a1.1,1.1,0,0,1,1.29-.29,6.41,6.41,0,0,1,1.14.39,2,2,0,0,1,.74.53c0,.1.09.19.14.29a2.26,2.26,0,0,0,.16.26,5.46,5.46,0,0,1,.66,1.21,11.91,11.91,0,0,1,.51,1.48c.12.46.13.74,0,.86.07.12.15.15.25.11l.07.19c-.12,0-.13.17,0,.36a2,2,0,0,0,.5.58,2.58,2.58,0,0,0,.64.42c.41.18.63.41.68.68S67.66,70.39,67.31,70.63Z" transform="translate(-21.38 -47.69)" fill="#6c6c6c"/><path d="M75.59,70.81a3.52,3.52,0,0,1-1-.17,7.25,7.25,0,0,1-1.07-.49,7.31,7.31,0,0,1-1-1A4.21,4.21,0,0,1,72,68a16.2,16.2,0,0,1-.48-1.79,8,8,0,0,1-.14-1.41c0-.63,0-1.31,0-2s0-1.34,0-1.91,0-.92,0-1.08c0-.34-.17-.51-.51-.48a5.75,5.75,0,0,0-1.09.18,1.65,1.65,0,0,1-.8.08c-.11,0-.18-.06-.21-.19a.93.93,0,0,0-.06-.21L68.57,59c-.08-.09-.08-.25,0-.46a.84.84,0,0,1,.51-.5c.22-.1.52-.21.9-.34a4.93,4.93,0,0,0,1.14-.54,2.15,2.15,0,0,0,.84-.88c.1-.61.23-1.29.38-2.05s.31-1.43.48-2A10.55,10.55,0,0,1,73.17,51a1.69,1.69,0,0,1,.89-.49q.31,0,.84.51l.38.35a.67.67,0,0,1,.12.45,5.91,5.91,0,0,1-.19,1c-.12.48-.3,1.17-.55,2.08-.07.28-.16.63-.28,1.06a2.51,2.51,0,0,0,.46-.06l.76-.21a10.85,10.85,0,0,1,1-.38,4.25,4.25,0,0,1,1-.21,2.2,2.2,0,0,1,1.37,0,1.42,1.42,0,0,1,.7,1c.11.26.09.44-.06.53a5.74,5.74,0,0,1-1.26.36l-1,.28-1.49.41c-.51.15-1,.28-1.31.4s-.53.21-.52.26a2,2,0,0,0-.2.8c-.07.47-.12,1-.17,1.58s-.07,1.1-.1,1.56A24,24,0,0,0,73.75,65a11.73,11.73,0,0,0,.45,2.25,2.26,2.26,0,0,0,.72,1.24c.28.18.73.12,1.36-.16a3.9,3.9,0,0,0,1.44-1.07,2.06,2.06,0,0,1,1-.82.45.45,0,0,1,.59.29A1.93,1.93,0,0,1,79.11,68a4.91,4.91,0,0,1-.87,1.45,4.32,4.32,0,0,1-1.27,1A2.51,2.51,0,0,1,75.59,70.81Z" transform="translate(-21.38 -47.69)" fill="#6c6c6c"/><path d="M86,68.15a2.66,2.66,0,0,1-.81.15,4.21,4.21,0,0,1-.89,0c-.25,0-.38-.09-.39-.17a.16.16,0,0,0-.21-.17,2.7,2.7,0,0,0-.75-.39,2.13,2.13,0,0,1-.47-1.15,8.83,8.83,0,0,1,.13-2.07A7.4,7.4,0,0,1,83.1,62a23.93,23.93,0,0,1,1.29-2.83,19.74,19.74,0,0,1,1.7-2.65A9.6,9.6,0,0,1,87.8,54.7,1.93,1.93,0,0,1,89.06,54a2.73,2.73,0,0,1,1.51.19,2.69,2.69,0,0,1,.84.54,8.35,8.35,0,0,1,.83.85,6.52,6.52,0,0,1,.69.95,4,4,0,0,1,.22.74,7.21,7.21,0,0,1,.08.79c0,.32,0,.79,0,1.42a13,13,0,0,0-.15,1.74A13.64,13.64,0,0,0,93.15,63a1.46,1.46,0,0,0,.29,1c.19.18.44.17.76-.05a1.8,1.8,0,0,1,.87-.31,1.11,1.11,0,0,1,.7.18.94.94,0,0,1,.33.68,1.4,1.4,0,0,1-.35,1,3.58,3.58,0,0,1-1,.93,2.57,2.57,0,0,1-1.18.46,1,1,0,0,1-.87-.43,5.44,5.44,0,0,1-.82-1.21c-.25-.48-.47-1-.68-1.4L90.88,63l-1.5,1.77c-.3.4-.59.76-.89,1.1a4,4,0,0,0-.53.7,2.14,2.14,0,0,1-.64.77A7.46,7.46,0,0,1,86,68.15Zm-.13-2.3a10.43,10.43,0,0,0,1.39-1.3,21.86,21.86,0,0,0,1.49-1.85,17.77,17.77,0,0,0,1.18-1.83,9.81,9.81,0,0,0,.83-1.77,8.28,8.28,0,0,0,.35-1.53,3.92,3.92,0,0,0-.61-.86,1.12,1.12,0,0,0-.67-.46,2.6,2.6,0,0,0-1.69,1.26,29,29,0,0,0-1.6,2.5c-.09.15-.21.37-.36.67s-.3.59-.44.85-.23.44-.28.52a8.16,8.16,0,0,0-.35.92q-.25.75-.48,1.5a3.06,3.06,0,0,0-.21,1,2.06,2.06,0,0,0,.11.5.46.46,0,0,0,.4.31A1.51,1.51,0,0,0,85.85,65.85Z" transform="translate(-21.38 -47.69)" fill="#6c6c6c"/><path d="M103.38,67.41a2.45,2.45,0,0,1-1.17.2,7,7,0,0,1-1.8-.42,1,1,0,0,1-.33-.15,3.06,3.06,0,0,1-.51-.41,2.06,2.06,0,0,1-.41-.57,4.11,4.11,0,0,1-.52-2.64,14.39,14.39,0,0,1,1.07-4.22,15,15,0,0,1,.83-1.49c.37-.6.75-1.15,1.12-1.66a3.43,3.43,0,0,1,.8-.88A13.77,13.77,0,0,0,104,54.5a3.16,3.16,0,0,1,.44-.16,4.54,4.54,0,0,1,.53-.12,1.51,1.51,0,0,1,.47,0,3.43,3.43,0,0,1,1.62.56,5.66,5.66,0,0,1,1.39,1.2,1.27,1.27,0,0,1,.36,1.19c0,.05-.08.15-.22.3l-.46.43a2.64,2.64,0,0,0-.41.41.56.56,0,0,1-.53.2.94.94,0,0,1-.58-.33,1.33,1.33,0,0,1-.3-.76c-.05-.21-.4-.49-1.06-.85-.2,0-.5.19-.87.57a10.53,10.53,0,0,0-1.11,1.35,7.14,7.14,0,0,0-1.2,1.66,14.81,14.81,0,0,0-.79,1.8l-.4,1.19a2.13,2.13,0,0,0,0,1.09,1.94,1.94,0,0,0,.27.86,2.32,2.32,0,0,0,.8,0c.43,0,.95-.09,1.54-.19s1.18-.21,1.76-.34a7.78,7.78,0,0,0,1.4-.44,3.61,3.61,0,0,1,1.28-.55,2.19,2.19,0,0,1,.82,0q.43.15.51.42a.68.68,0,0,1-.19.61,3.18,3.18,0,0,1-.93.69A6.57,6.57,0,0,0,107,66c-.32.24-.49.43-.49.56a.77.77,0,0,0-.33.1.33.33,0,0,1-.29.06,5.8,5.8,0,0,0-.62.12c-.37.08-.74.18-1.11.28A3.57,3.57,0,0,0,103.38,67.41Z" transform="translate(-21.38 -47.69)" fill="#6c6c6c"/><path d="M114.92,68.65a1.9,1.9,0,0,1-.84-.51,4.25,4.25,0,0,1-.72-.91,3.48,3.48,0,0,1-.38-.91.88.88,0,0,0-.17-.32c-.1-.09-.14-.43-.11-1a17.19,17.19,0,0,1,.25-2,13.46,13.46,0,0,1,.4-1.77c.16-.41.39-1,.7-1.65s.58-1.32.8-1.88l1.21-2.18-1.52-.54a.84.84,0,0,1-.43-.34.77.77,0,0,1-.15-.4,1.36,1.36,0,0,1,.41-.74c.25-.28.43-.42.54-.41a3.32,3.32,0,0,0,.71.09c.35,0,.7,0,1,0a4.5,4.5,0,0,0,.62,0,1.4,1.4,0,0,0,.33-.19.77.77,0,0,0,.26-.39c.15-.28.29-.53.41-.77a6.47,6.47,0,0,1,.49-.81l.51-.82a10.9,10.9,0,0,1,.63-.94c.14-.17.3-.38.47-.63a2.85,2.85,0,0,1,.63-.62,1,1,0,0,1,.75-.24,1.79,1.79,0,0,1,.91.6,1.68,1.68,0,0,1,.31.6q0,.21-.36.72a11.87,11.87,0,0,1-.82,1.27c-.3.42-.59.85-.85,1.27q-.69.81-.3,1a8,8,0,0,0,2.19,0,2.5,2.5,0,0,1,1.62.21,1.18,1.18,0,0,1,.52,1c0,.62-.06,1-.28,1.11a4.48,4.48,0,0,1-1.8.07,11.79,11.79,0,0,1-1.61.06l-1-.05h-.67a2.36,2.36,0,0,0-.47,0,.8.8,0,0,0-.46.23,2.92,2.92,0,0,0-.33.46,3.52,3.52,0,0,0-.52.78c-.25.43-.54.89-.89,1.39-.44,1.06-.83,2.12-1.16,3.18s-.62,2.09-.85,3.09a2.28,2.28,0,0,0,0,1.34c.11.26.43.43,1,.52a10.4,10.4,0,0,0,1.39.08,6.89,6.89,0,0,0,1.51-.11l.92-.34a7.42,7.42,0,0,0,.89-.39l1.1-.54c.14-.2.29-.26.44-.17a1,1,0,0,1,.35.61,2.79,2.79,0,0,1-.27,1,3.14,3.14,0,0,1-1.52,1.1,8.45,8.45,0,0,1-3.31,1.08A7.57,7.57,0,0,1,114.92,68.65Z" transform="translate(-21.38 -47.69)" fill="#6c6c6c"/><path d="M154.34,77.09c-.06.15-.22.17-.47,0a1.25,1.25,0,0,1-.6-.7,3.7,3.7,0,0,1,0-1.4c.08-.41.22-1,.41-1.83s.78-2,1.34-3.36,1.2-2.94,1.94-4.67,1.51-3.51,2.34-5.39c.52-1,.95-1.84,1.32-2.66s.75-1.74,1.17-2.76c0-.08-.06-.06-.22.05a3,3,0,0,0-.5.4q-.25.23-.24.39c-.46.43-.88.84-1.24,1.22a5.78,5.78,0,0,0-1.23,1.34,17.78,17.78,0,0,1-1.62,1.9l-1.8,2.2c-.64.79-1.19,1.44-1.67,2-.29.29-.6.62-.92,1l-.59.75a5.09,5.09,0,0,1-.74.91,14.57,14.57,0,0,1-1.07,1l-.61.62c-.2.21-.42.46-.67.76a2.39,2.39,0,0,1-.5.61c-.32.34-.7.7-1.14,1.09a12.74,12.74,0,0,1-1.21,1,5.92,5.92,0,0,1-2.48,1.23c-.57.06-1.12-.28-1.66-1a4,4,0,0,1-.44-1.54,6.41,6.41,0,0,1,.2-2c.18-.77.47-1.73.86-2.87.36-.86.71-1.72,1-2.59l1-2.48c.31-.77.57-1.43.8-2a7.33,7.33,0,0,1,.51-1.05c.16-.5.2-.79.13-.85s-.25.05-.55.36c-.14.16-.49.55-1.07,1.16s-1.25,1.37-2,2.27-1.57,1.9-2.38,3l-3.55,4.28-2.21,2.67c-.55.66-.94,1.15-1.19,1.47s-.43.54-.53.65a1.48,1.48,0,0,1-.25.23,1.16,1.16,0,0,1-.65-.43c-.2-.24-.4-.51-.61-.82a1.13,1.13,0,0,1,0-.55,2.5,2.5,0,0,1,.4-.74l1-1.44c.47-.6.89-1.12,1.27-1.56a3,3,0,0,1,.83-.76,6,6,0,0,0,.47-.55A2.06,2.06,0,0,0,135,65a7.37,7.37,0,0,0,.78-.82q.54-.63,1.14-1.38l1-1.14c.43-.47.89-1,1.38-1.57s.93-1.13,1.33-1.66l4-4.5a13.87,13.87,0,0,1,2.38-2.29,3.15,3.15,0,0,0,.51-.45,1.31,1.31,0,0,0,.33-.57,3.54,3.54,0,0,1,.62-1.41c.31-.4.57-.55.79-.45a2.78,2.78,0,0,1,.67.21,1.3,1.3,0,0,1,.55.63,7.37,7.37,0,0,1,.35,1,3.38,3.38,0,0,1-.41,1.82,6.74,6.74,0,0,1-.36,1.18c-.16.43-.32.83-.45,1.19s-.25.63-.31.83c-.53.92-1.07,2-1.6,3.16s-1,2.37-1.52,3.59-.91,2.35-1.29,3.4-.64,1.92-.82,2.62a3,3,0,0,0-.19,1.21.44.44,0,0,0,.45.13,3.16,3.16,0,0,0,.85-.86c.24-.27.57-.6,1-1s.8-.73,1.18-1.05l1.28-1.41L150.92,63q1.37-1.47,3.28-3.61t4.41-5c.77-.77,1.5-1.53,2.2-2.28a6.9,6.9,0,0,1,1.61-1.4,1,1,0,0,1,1.16,0,2.27,2.27,0,0,1,.81,1.21,4.15,4.15,0,0,1,.09,2,9.71,9.71,0,0,1-.48,1.69c-.28.77-.63,1.63-1.06,2.6s-.94,1.93-1.51,2.93c-.17.42-.4.94-.7,1.55s-.61,1.25-1,1.9-.68,1.25-1,1.82c-.3.82-.61,1.62-1,2.4a5.57,5.57,0,0,0-.5,1.61,4.82,4.82,0,0,0-.82,1.66c-.23.75-.42,1.53-.59,2.35s-.52,1.66-.66,2.06-.26.56-.38.51C154.56,76.83,154.38,76.87,154.34,77.09Z" transform="translate(-21.38 -47.69)" fill="#6c6c6c"/><path d="M163.17,76.74a3.31,3.31,0,0,1-1.44-2.19,7.53,7.53,0,0,1,.74-3.38c.26-.76.43-1.27.49-1.52a1.09,1.09,0,0,0-.2-.86,4.52,4.52,0,0,0-.29-.53q-.21-.33-.12-.51a1.74,1.74,0,0,1,.2-.58c.11-.2.21-.28.31-.25a1,1,0,0,0,.34,0,.39.39,0,0,1,.32.08l.33.13a.21.21,0,0,1,.14.24c0,.21.21.27.47.19a2.45,2.45,0,0,0,1-.76,7,7,0,0,1,1.32-.93c.53-.29,1-.55,1.55-.77a7.32,7.32,0,0,1,1.23-.46l.62,0a6.34,6.34,0,0,1,.86,0,2.64,2.64,0,0,1,.74.16,2.25,2.25,0,0,1,1.05.69,6.76,6.76,0,0,1,.67,1,1.55,1.55,0,0,1,.37,1.08,3.76,3.76,0,0,1-.93,2.29,2.55,2.55,0,0,1-.88.73,11.48,11.48,0,0,1-1.49.69,6.3,6.3,0,0,1-1.43.37,9.55,9.55,0,0,1-1.31-.15,10.68,10.68,0,0,1-1.45-.34,2.48,2.48,0,0,1-.85-.37c-.15-.15-.32,0-.52.3a8.85,8.85,0,0,0-.67,1.56,5,5,0,0,0-.33,1.2,2.43,2.43,0,0,0,0,.57c.13.22.31.51.55.86a1.41,1.41,0,0,0,1.3.49,3,3,0,0,0,1.68-.59,11,11,0,0,1,1.65-.92.67.67,0,0,1,.59-.18,1.81,1.81,0,0,1,.76.26.64.64,0,0,1,.19.72,5,5,0,0,1-.69,1,2.25,2.25,0,0,1-.69.52,10.87,10.87,0,0,1-1.08.56,6.39,6.39,0,0,1-1,.39,5.06,5.06,0,0,1-2.28,0A5.4,5.4,0,0,1,163.17,76.74Zm4.31-7c.58,0,1.05.06,1.39.09a2,2,0,0,0,1-.17,6.51,6.51,0,0,0,1.51-1.07,1.85,1.85,0,0,0,.32-.8,1,1,0,0,0-.06-.62.77.77,0,0,0-.74-.47,2.92,2.92,0,0,0-1,.2,3.58,3.58,0,0,0-.92.33,10.87,10.87,0,0,0-1.27.71,9.44,9.44,0,0,0-1.06.78c-.28.25-.38.41-.29.49-.08.08.05.19.38.3Z" transform="translate(-21.38 -47.69)" fill="#6c6c6c"/><path d="M174,80.46a3.5,3.5,0,0,1-1.25-.11,2,2,0,0,1-.89-.74,1.31,1.31,0,0,1-.06-1.51,3.16,3.16,0,0,1,1.63-1,3,3,0,0,1,1.12-.15,2.27,2.27,0,0,1,.91.56c.61.7.78,1.33.52,1.87S175.07,80.29,174,80.46Zm3.83-5.36c-.73-.08-1.09-.56-1.07-1.42A6.89,6.89,0,0,1,178,70.45a8.61,8.61,0,0,0,.64-.76A2.3,2.3,0,0,0,179,69c.2-.29.44-.63.74-1s.58-.74.87-1.08.5-.55.61-.65.23,0,.4-.16a1,1,0,0,0,.32-.47,2.11,2.11,0,0,1,.34-.64,1.44,1.44,0,0,1,.44-.43.69.69,0,0,1,.27-.37.79.79,0,0,0,.26-.33.41.41,0,0,1,.18-.23.44.44,0,0,0,.17-.23c.34-.33.81-.83,1.41-1.51s1.21-1.39,1.84-2.15,1.16-1.44,1.62-2a5.76,5.76,0,0,0,.74-1.11.89.89,0,0,1,.36-.38.46.46,0,0,1,.47.06.6.6,0,0,1,.34,0,1.55,1.55,0,0,1,.31.07c.11.25.22.5.34.75a1,1,0,0,1,.15.7,7.16,7.16,0,0,1-.2.8,4,4,0,0,1-1,1.44l-1.68,1.65c-.39.4-.77.77-1.14,1.12a3,3,0,0,0-.59.68,1.13,1.13,0,0,1-.29.4c-.16.17-.34.39-.56.65a10.55,10.55,0,0,0-.75.75c-.29.29-.54.56-.76.81a2.07,2.07,0,0,0-.37.47,3.16,3.16,0,0,1-.18.27.93.93,0,0,1-.3.24c-.1,0-.2.09-.31.35a3.33,3.33,0,0,1-.38.64,8.67,8.67,0,0,1-.93,1.13c-.88,1.17-1.53,2.12-2,2.84a15.88,15.88,0,0,0-1,1.89,8.34,8.34,0,0,1-.44,1A.73.73,0,0,1,177.84,75.1Z" transform="translate(-21.38 -47.69)" fill="#6c6c6c"/></g></g></svg>