<svg xmlns="http://www.w3.org/2000/svg" xmlns:xlink="http://www.w3.org/1999/xlink" viewBox="0 0 269 269">
  <defs>
    <clipPath id="clip-path">
      <circle id="mask" cx="134.5" cy="134.5" r="134.5" transform="translate(0.42)" fill="none"/>
    </clipPath>
  </defs>
  <g id="Layer_2" data-name="Layer 2" transform="translate(-17.42 -58)">
    <g id="Layer_1" data-name="Layer 1" transform="translate(17 58)">
      <g id="Group_6" data-name="Group 6" clip-path="url(#clip-path)">
        <g id="dots" transform="translate(-14.674 -50.063)">
          <circle id="Ellipse_2885" data-name="Ellipse 2885" cx="5.127" cy="5.127" r="5.127" transform="translate(0 0)" fill="#fff"/>
          <circle id="Ellipse_2886" data-name="Ellipse 2886" cx="5.127" cy="5.127" r="5.127" transform="translate(52.437 0)" fill="#fff"/>
          <circle id="Ellipse_2887" data-name="Ellipse 2887" cx="5.127" cy="5.127" r="5.127" transform="translate(26.223 0)" fill="#fff"/>
          <circle id="Ellipse_2888" data-name="Ellipse 2888" cx="5.127" cy="5.127" r="5.127" transform="translate(0 23.944)" fill="#fff"/>
          <circle id="Ellipse_2889" data-name="Ellipse 2889" cx="5.127" cy="5.127" r="5.127" transform="translate(52.437 23.944)" fill="#fff"/>
          <circle id="Ellipse_2890" data-name="Ellipse 2890" cx="5.127" cy="5.127" r="5.127" transform="translate(26.223 23.944)" fill="#fff"/>
          <circle id="Ellipse_2891" data-name="Ellipse 2891" cx="5.127" cy="5.127" r="5.127" transform="translate(0 47.879)" fill="#fff"/>
          <circle id="Ellipse_2892" data-name="Ellipse 2892" cx="5.127" cy="5.127" r="5.127" transform="translate(52.437 47.879)" fill="#fff"/>
          <circle id="Ellipse_2893" data-name="Ellipse 2893" cx="5.127" cy="5.127" r="5.127" transform="translate(26.223 47.879)" fill="#fff"/>
          <circle id="Ellipse_2894" data-name="Ellipse 2894" cx="5.127" cy="5.127" r="5.127" transform="translate(78.651 0)" fill="#fff"/>
          <circle id="Ellipse_2895" data-name="Ellipse 2895" cx="5.127" cy="5.127" r="5.127" transform="translate(131.087 0)" fill="#fff"/>
          <circle id="Ellipse_2896" data-name="Ellipse 2896" cx="5.127" cy="5.127" r="5.127" transform="translate(104.873 0)" fill="#fff"/>
          <circle id="Ellipse_2897" data-name="Ellipse 2897" cx="5.127" cy="5.127" r="5.127" transform="translate(78.651 23.944)" fill="#fff"/>
          <circle id="Ellipse_2898" data-name="Ellipse 2898" cx="5.127" cy="5.127" r="5.127" transform="translate(131.087 23.944)" fill="#fff"/>
          <circle id="Ellipse_2899" data-name="Ellipse 2899" cx="5.127" cy="5.127" r="5.127" transform="translate(104.873 23.944)" fill="#fff"/>
          <circle id="Ellipse_2900" data-name="Ellipse 2900" cx="5.127" cy="5.127" r="5.127" transform="translate(78.651 47.879)" fill="#fff"/>
          <circle id="Ellipse_2901" data-name="Ellipse 2901" cx="5.127" cy="5.127" r="5.127" transform="translate(131.087 47.879)" fill="#fff"/>
          <circle id="Ellipse_2902" data-name="Ellipse 2902" cx="5.127" cy="5.127" r="5.127" transform="translate(104.873 47.879)" fill="#fff"/>
          <circle id="Ellipse_2903" data-name="Ellipse 2903" cx="5.127" cy="5.127" r="5.127" transform="translate(157.31 0)" fill="#fff"/>
          <circle id="Ellipse_2904" data-name="Ellipse 2904" cx="5.127" cy="5.127" r="5.127" transform="translate(209.747 0)" fill="#fff"/>
          <circle id="Ellipse_2905" data-name="Ellipse 2905" cx="5.127" cy="5.127" r="5.127" transform="translate(183.524 0)" fill="#fff"/>
          <circle id="Ellipse_2906" data-name="Ellipse 2906" cx="5.127" cy="5.127" r="5.127" transform="translate(157.31 23.944)" fill="#fff"/>
          <circle id="Ellipse_2907" data-name="Ellipse 2907" cx="5.127" cy="5.127" r="5.127" transform="translate(209.747 23.944)" fill="#fff"/>
          <circle id="Ellipse_2908" data-name="Ellipse 2908" cx="5.127" cy="5.127" r="5.127" transform="translate(183.524 23.944)" fill="#fff"/>
          <circle id="Ellipse_2909" data-name="Ellipse 2909" cx="5.127" cy="5.127" r="5.127" transform="translate(157.31 47.879)" fill="#fff"/>
          <circle id="Ellipse_2910" data-name="Ellipse 2910" cx="5.127" cy="5.127" r="5.127" transform="translate(209.747 47.879)" fill="#fff"/>
          <circle id="Ellipse_2911" data-name="Ellipse 2911" cx="5.127" cy="5.127" r="5.127" transform="translate(183.524 47.879)" fill="#fff"/>
          <circle id="Ellipse_2912" data-name="Ellipse 2912" cx="5.127" cy="5.127" r="5.127" transform="translate(235.961 0)" fill="#fff"/>
          <circle id="Ellipse_2913" data-name="Ellipse 2913" cx="5.127" cy="5.127" r="5.127" transform="translate(288.397 0)" fill="#fff"/>
          <circle id="Ellipse_2914" data-name="Ellipse 2914" cx="5.127" cy="5.127" r="5.127" transform="translate(262.174 0)" fill="#fff"/>
          <circle id="Ellipse_2915" data-name="Ellipse 2915" cx="5.127" cy="5.127" r="5.127" transform="translate(235.961 23.944)" fill="#fff"/>
          <circle id="Ellipse_2916" data-name="Ellipse 2916" cx="5.127" cy="5.127" r="5.127" transform="translate(288.397 23.944)" fill="#fff"/>
          <circle id="Ellipse_2917" data-name="Ellipse 2917" cx="5.127" cy="5.127" r="5.127" transform="translate(262.174 23.944)" fill="#fff"/>
          <circle id="Ellipse_2918" data-name="Ellipse 2918" cx="5.127" cy="5.127" r="5.127" transform="translate(235.961 47.879)" fill="#fff"/>
          <circle id="Ellipse_2919" data-name="Ellipse 2919" cx="5.127" cy="5.127" r="5.127" transform="translate(288.397 47.879)" fill="#fff"/>
          <circle id="Ellipse_2920" data-name="Ellipse 2920" cx="5.127" cy="5.127" r="5.127" transform="translate(262.174 47.879)" fill="#fff"/>
          <circle id="Ellipse_2921" data-name="Ellipse 2921" cx="5.127" cy="5.127" r="5.127" transform="translate(0 71.814)" fill="#fff"/>
          <circle id="Ellipse_2922" data-name="Ellipse 2922" cx="5.127" cy="5.127" r="5.127" transform="translate(52.437 71.814)" fill="#fff"/>
          <circle id="Ellipse_2923" data-name="Ellipse 2923" cx="5.127" cy="5.127" r="5.127" transform="translate(26.223 71.814)" fill="#fff"/>
          <circle id="Ellipse_2924" data-name="Ellipse 2924" cx="5.127" cy="5.127" r="5.127" transform="translate(0 95.75)" fill="#fff"/>
          <circle id="Ellipse_2925" data-name="Ellipse 2925" cx="5.127" cy="5.127" r="5.127" transform="translate(52.437 95.75)" fill="#fff"/>
          <circle id="Ellipse_2926" data-name="Ellipse 2926" cx="5.127" cy="5.127" r="5.127" transform="translate(26.223 95.75)" fill="#fff"/>
          <circle id="Ellipse_2927" data-name="Ellipse 2927" cx="5.127" cy="5.127" r="5.127" transform="translate(0 119.694)" fill="#fff"/>
          <circle id="Ellipse_2928" data-name="Ellipse 2928" cx="5.127" cy="5.127" r="5.127" transform="translate(52.437 119.694)" fill="#fff"/>
          <circle id="Ellipse_2929" data-name="Ellipse 2929" cx="5.127" cy="5.127" r="5.127" transform="translate(26.223 119.694)" fill="#fff"/>
          <circle id="Ellipse_2930" data-name="Ellipse 2930" cx="5.127" cy="5.127" r="5.127" transform="translate(78.651 71.814)" fill="#fff"/>
          <circle id="Ellipse_2931" data-name="Ellipse 2931" cx="5.127" cy="5.127" r="5.127" transform="translate(131.087 71.814)" fill="#fff"/>
          <circle id="Ellipse_2932" data-name="Ellipse 2932" cx="5.127" cy="5.127" r="5.127" transform="translate(104.873 71.814)" fill="#fff"/>
          <circle id="Ellipse_2933" data-name="Ellipse 2933" cx="5.127" cy="5.127" r="5.127" transform="translate(78.651 95.75)" fill="#fff"/>
          <circle id="Ellipse_2934" data-name="Ellipse 2934" cx="5.127" cy="5.127" r="5.127" transform="translate(131.087 95.75)" fill="#fff"/>
          <circle id="Ellipse_2935" data-name="Ellipse 2935" cx="5.127" cy="5.127" r="5.127" transform="translate(104.873 95.75)" fill="#fff"/>
          <circle id="Ellipse_2936" data-name="Ellipse 2936" cx="5.127" cy="5.127" r="5.127" transform="translate(78.651 119.694)" fill="#fff"/>
          <circle id="Ellipse_2937" data-name="Ellipse 2937" cx="5.127" cy="5.127" r="5.127" transform="translate(131.087 119.694)" fill="#fff"/>
          <circle id="Ellipse_2938" data-name="Ellipse 2938" cx="5.127" cy="5.127" r="5.127" transform="translate(104.873 119.694)" fill="#fff"/>
          <circle id="Ellipse_2939" data-name="Ellipse 2939" cx="5.127" cy="5.127" r="5.127" transform="translate(157.31 71.814)" fill="#fff"/>
          <circle id="Ellipse_2940" data-name="Ellipse 2940" cx="5.127" cy="5.127" r="5.127" transform="translate(209.747 71.814)" fill="#fff"/>
          <circle id="Ellipse_2941" data-name="Ellipse 2941" cx="5.127" cy="5.127" r="5.127" transform="translate(183.524 71.814)" fill="#fff"/>
          <circle id="Ellipse_2942" data-name="Ellipse 2942" cx="5.127" cy="5.127" r="5.127" transform="translate(157.31 95.75)" fill="#fff"/>
          <circle id="Ellipse_2943" data-name="Ellipse 2943" cx="5.127" cy="5.127" r="5.127" transform="translate(209.747 95.75)" fill="#fff"/>
          <circle id="Ellipse_2944" data-name="Ellipse 2944" cx="5.127" cy="5.127" r="5.127" transform="translate(183.524 95.75)" fill="#fff"/>
          <circle id="Ellipse_2945" data-name="Ellipse 2945" cx="5.127" cy="5.127" r="5.127" transform="translate(157.31 119.694)" fill="#fff"/>
          <circle id="Ellipse_2946" data-name="Ellipse 2946" cx="5.127" cy="5.127" r="5.127" transform="translate(209.747 119.694)" fill="#fff"/>
          <circle id="Ellipse_2947" data-name="Ellipse 2947" cx="5.127" cy="5.127" r="5.127" transform="translate(183.524 119.694)" fill="#fff"/>
          <circle id="Ellipse_2948" data-name="Ellipse 2948" cx="5.127" cy="5.127" r="5.127" transform="translate(235.961 71.814)" fill="#fff"/>
          <circle id="Ellipse_2949" data-name="Ellipse 2949" cx="5.127" cy="5.127" r="5.127" transform="translate(288.397 71.814)" fill="#fff"/>
          <circle id="Ellipse_2950" data-name="Ellipse 2950" cx="5.127" cy="5.127" r="5.127" transform="translate(262.174 71.814)" fill="#fff"/>
          <circle id="Ellipse_2951" data-name="Ellipse 2951" cx="5.127" cy="5.127" r="5.127" transform="translate(235.961 95.75)" fill="#fff"/>
          <circle id="Ellipse_2952" data-name="Ellipse 2952" cx="5.127" cy="5.127" r="5.127" transform="translate(288.397 95.75)" fill="#fff"/>
          <circle id="Ellipse_2953" data-name="Ellipse 2953" cx="5.127" cy="5.127" r="5.127" transform="translate(262.174 95.75)" fill="#fff"/>
          <circle id="Ellipse_2954" data-name="Ellipse 2954" cx="5.127" cy="5.127" r="5.127" transform="translate(235.961 119.694)" fill="#fff"/>
          <circle id="Ellipse_2955" data-name="Ellipse 2955" cx="5.127" cy="5.127" r="5.127" transform="translate(288.397 119.694)" fill="#fff"/>
          <circle id="Ellipse_2956" data-name="Ellipse 2956" cx="5.127" cy="5.127" r="5.127" transform="translate(262.174 119.694)" fill="#fff"/>
          <circle id="Ellipse_2957" data-name="Ellipse 2957" cx="5.127" cy="5.127" r="5.127" transform="translate(0 143.629)" fill="#fff"/>
          <circle id="Ellipse_2958" data-name="Ellipse 2958" cx="5.127" cy="5.127" r="5.127" transform="translate(52.437 143.629)" fill="#fff"/>
          <circle id="Ellipse_2959" data-name="Ellipse 2959" cx="5.127" cy="5.127" r="5.127" transform="translate(26.223 143.629)" fill="#fff"/>
          <circle id="Ellipse_2960" data-name="Ellipse 2960" cx="5.127" cy="5.127" r="5.127" transform="translate(0 167.564)" fill="#fff"/>
          <circle id="Ellipse_2961" data-name="Ellipse 2961" cx="5.127" cy="5.127" r="5.127" transform="translate(52.437 167.564)" fill="#fff"/>
          <circle id="Ellipse_2962" data-name="Ellipse 2962" cx="5.127" cy="5.127" r="5.127" transform="translate(26.223 167.564)" fill="#fff"/>
          <circle id="Ellipse_2963" data-name="Ellipse 2963" cx="5.127" cy="5.127" r="5.127" transform="translate(0 191.508)" fill="#fff"/>
          <circle id="Ellipse_2964" data-name="Ellipse 2964" cx="5.127" cy="5.127" r="5.127" transform="translate(52.437 191.508)" fill="#fff"/>
          <circle id="Ellipse_2965" data-name="Ellipse 2965" cx="5.127" cy="5.127" r="5.127" transform="translate(26.223 191.508)" fill="#fff"/>
          <circle id="Ellipse_2966" data-name="Ellipse 2966" cx="5.127" cy="5.127" r="5.127" transform="translate(78.651 143.629)" fill="#fff"/>
          <circle id="Ellipse_2967" data-name="Ellipse 2967" cx="5.127" cy="5.127" r="5.127" transform="translate(131.087 143.629)" fill="#fff"/>
          <circle id="Ellipse_2968" data-name="Ellipse 2968" cx="5.127" cy="5.127" r="5.127" transform="translate(104.873 143.629)" fill="#fff"/>
          <circle id="Ellipse_2969" data-name="Ellipse 2969" cx="5.127" cy="5.127" r="5.127" transform="translate(78.651 167.564)" fill="#fff"/>
          <circle id="Ellipse_2970" data-name="Ellipse 2970" cx="5.127" cy="5.127" r="5.127" transform="translate(131.087 167.564)" fill="#fff"/>
          <circle id="Ellipse_2971" data-name="Ellipse 2971" cx="5.127" cy="5.127" r="5.127" transform="translate(104.873 167.564)" fill="#fff"/>
          <circle id="Ellipse_2972" data-name="Ellipse 2972" cx="5.127" cy="5.127" r="5.127" transform="translate(78.651 191.508)" fill="#fff"/>
          <circle id="Ellipse_2973" data-name="Ellipse 2973" cx="5.127" cy="5.127" r="5.127" transform="translate(131.087 191.508)" fill="#fff"/>
          <circle id="Ellipse_2974" data-name="Ellipse 2974" cx="5.127" cy="5.127" r="5.127" transform="translate(104.873 191.508)" fill="#fff"/>
          <circle id="Ellipse_2975" data-name="Ellipse 2975" cx="5.127" cy="5.127" r="5.127" transform="translate(157.31 143.629)" fill="#fff"/>
          <circle id="Ellipse_2976" data-name="Ellipse 2976" cx="5.127" cy="5.127" r="5.127" transform="translate(209.747 143.629)" fill="#fff"/>
          <circle id="Ellipse_2977" data-name="Ellipse 2977" cx="5.127" cy="5.127" r="5.127" transform="translate(183.524 143.629)" fill="#fff"/>
          <circle id="Ellipse_2978" data-name="Ellipse 2978" cx="5.127" cy="5.127" r="5.127" transform="translate(157.31 167.564)" fill="#fff"/>
          <circle id="Ellipse_2979" data-name="Ellipse 2979" cx="5.127" cy="5.127" r="5.127" transform="translate(209.747 167.564)" fill="#fff"/>
          <circle id="Ellipse_2980" data-name="Ellipse 2980" cx="5.127" cy="5.127" r="5.127" transform="translate(183.524 167.564)" fill="#fff"/>
          <circle id="Ellipse_2981" data-name="Ellipse 2981" cx="5.127" cy="5.127" r="5.127" transform="translate(157.31 191.508)" fill="#fff"/>
          <circle id="Ellipse_2982" data-name="Ellipse 2982" cx="5.127" cy="5.127" r="5.127" transform="translate(209.747 191.508)" fill="#fff"/>
          <circle id="Ellipse_2983" data-name="Ellipse 2983" cx="5.127" cy="5.127" r="5.127" transform="translate(183.524 191.508)" fill="#fff"/>
          <circle id="Ellipse_2984" data-name="Ellipse 2984" cx="5.127" cy="5.127" r="5.127" transform="translate(235.961 143.629)" fill="#fff"/>
          <circle id="Ellipse_2985" data-name="Ellipse 2985" cx="5.127" cy="5.127" r="5.127" transform="translate(288.397 143.629)" fill="#fff"/>
          <circle id="Ellipse_2986" data-name="Ellipse 2986" cx="5.127" cy="5.127" r="5.127" transform="translate(262.174 143.629)" fill="#fff"/>
          <circle id="Ellipse_2987" data-name="Ellipse 2987" cx="5.127" cy="5.127" r="5.127" transform="translate(235.961 167.564)" fill="#fff"/>
          <circle id="Ellipse_2988" data-name="Ellipse 2988" cx="5.127" cy="5.127" r="5.127" transform="translate(288.397 167.564)" fill="#fff"/>
          <circle id="Ellipse_2989" data-name="Ellipse 2989" cx="5.127" cy="5.127" r="5.127" transform="translate(262.174 167.564)" fill="#fff"/>
          <circle id="Ellipse_2990" data-name="Ellipse 2990" cx="5.127" cy="5.127" r="5.127" transform="translate(235.961 191.508)" fill="#fff"/>
          <circle id="Ellipse_2991" data-name="Ellipse 2991" cx="5.127" cy="5.127" r="5.127" transform="translate(288.397 191.508)" fill="#fff"/>
          <circle id="Ellipse_2992" data-name="Ellipse 2992" cx="5.127" cy="5.127" r="5.127" transform="translate(262.174 191.508)" fill="#fff"/>
          <circle id="Ellipse_2993" data-name="Ellipse 2993" cx="5.127" cy="5.127" r="5.127" transform="translate(0 215.443)" fill="#fff"/>
          <circle id="Ellipse_2994" data-name="Ellipse 2994" cx="5.127" cy="5.127" r="5.127" transform="translate(52.437 215.443)" fill="#fff"/>
          <circle id="Ellipse_2995" data-name="Ellipse 2995" cx="5.127" cy="5.127" r="5.127" transform="translate(26.223 215.443)" fill="#fff"/>
          <circle id="Ellipse_2996" data-name="Ellipse 2996" cx="5.127" cy="5.127" r="5.127" transform="translate(0 239.379)" fill="#fff"/>
          <circle id="Ellipse_2997" data-name="Ellipse 2997" cx="5.127" cy="5.127" r="5.127" transform="translate(52.437 239.379)" fill="#fff"/>
          <circle id="Ellipse_2998" data-name="Ellipse 2998" cx="5.127" cy="5.127" r="5.127" transform="translate(26.223 239.379)" fill="#fff"/>
          <circle id="Ellipse_2999" data-name="Ellipse 2999" cx="5.127" cy="5.127" r="5.127" transform="translate(0 263.314)" fill="#fff"/>
          <circle id="Ellipse_3000" data-name="Ellipse 3000" cx="5.127" cy="5.127" r="5.127" transform="translate(52.437 263.314)" fill="#fff"/>
          <circle id="Ellipse_3001" data-name="Ellipse 3001" cx="5.127" cy="5.127" r="5.127" transform="translate(26.223 263.314)" fill="#fff"/>
          <circle id="Ellipse_3002" data-name="Ellipse 3002" cx="5.127" cy="5.127" r="5.127" transform="translate(78.651 215.443)" fill="#fff"/>
          <circle id="Ellipse_3003" data-name="Ellipse 3003" cx="5.127" cy="5.127" r="5.127" transform="translate(131.087 215.443)" fill="#fff"/>
          <circle id="Ellipse_3004" data-name="Ellipse 3004" cx="5.127" cy="5.127" r="5.127" transform="translate(104.873 215.443)" fill="#fff"/>
          <circle id="Ellipse_3005" data-name="Ellipse 3005" cx="5.127" cy="5.127" r="5.127" transform="translate(78.651 239.379)" fill="#fff"/>
          <circle id="Ellipse_3006" data-name="Ellipse 3006" cx="5.127" cy="5.127" r="5.127" transform="translate(131.087 239.379)" fill="#fff"/>
          <circle id="Ellipse_3007" data-name="Ellipse 3007" cx="5.127" cy="5.127" r="5.127" transform="translate(104.873 239.379)" fill="#fff"/>
          <circle id="Ellipse_3008" data-name="Ellipse 3008" cx="5.127" cy="5.127" r="5.127" transform="translate(78.651 263.314)" fill="#fff"/>
          <circle id="Ellipse_3009" data-name="Ellipse 3009" cx="5.127" cy="5.127" r="5.127" transform="translate(131.087 263.314)" fill="#fff"/>
          <circle id="Ellipse_3010" data-name="Ellipse 3010" cx="5.127" cy="5.127" r="5.127" transform="translate(104.873 263.314)" fill="#fff"/>
          <circle id="Ellipse_3011" data-name="Ellipse 3011" cx="5.127" cy="5.127" r="5.127" transform="translate(157.31 215.443)" fill="#fff"/>
          <circle id="Ellipse_3012" data-name="Ellipse 3012" cx="5.127" cy="5.127" r="5.127" transform="translate(209.747 215.443)" fill="#fff"/>
          <circle id="Ellipse_3013" data-name="Ellipse 3013" cx="5.127" cy="5.127" r="5.127" transform="translate(183.524 215.443)" fill="#fff"/>
          <circle id="Ellipse_3014" data-name="Ellipse 3014" cx="5.127" cy="5.127" r="5.127" transform="translate(157.31 239.379)" fill="#fff"/>
          <circle id="Ellipse_3015" data-name="Ellipse 3015" cx="5.127" cy="5.127" r="5.127" transform="translate(209.747 239.379)" fill="#fff"/>
          <circle id="Ellipse_3016" data-name="Ellipse 3016" cx="5.127" cy="5.127" r="5.127" transform="translate(183.524 239.379)" fill="#fff"/>
          <circle id="Ellipse_3017" data-name="Ellipse 3017" cx="5.127" cy="5.127" r="5.127" transform="translate(157.31 263.314)" fill="#fff"/>
          <circle id="Ellipse_3018" data-name="Ellipse 3018" cx="5.127" cy="5.127" r="5.127" transform="translate(209.747 263.314)" fill="#fff"/>
          <circle id="Ellipse_3019" data-name="Ellipse 3019" cx="5.127" cy="5.127" r="5.127" transform="translate(183.524 263.314)" fill="#fff"/>
          <circle id="Ellipse_3020" data-name="Ellipse 3020" cx="5.127" cy="5.127" r="5.127" transform="translate(235.961 215.443)" fill="#fff"/>
          <circle id="Ellipse_3021" data-name="Ellipse 3021" cx="5.127" cy="5.127" r="5.127" transform="translate(288.397 215.443)" fill="#fff"/>
          <circle id="Ellipse_3022" data-name="Ellipse 3022" cx="5.127" cy="5.127" r="5.127" transform="translate(262.174 215.443)" fill="#fff"/>
          <circle id="Ellipse_3023" data-name="Ellipse 3023" cx="5.127" cy="5.127" r="5.127" transform="translate(235.961 239.379)" fill="#fff"/>
          <circle id="Ellipse_3024" data-name="Ellipse 3024" cx="5.127" cy="5.127" r="5.127" transform="translate(288.397 239.379)" fill="#fff"/>
          <circle id="Ellipse_3025" data-name="Ellipse 3025" cx="5.127" cy="5.127" r="5.127" transform="translate(262.174 239.379)" fill="#fff"/>
          <circle id="Ellipse_3026" data-name="Ellipse 3026" cx="5.127" cy="5.127" r="5.127" transform="translate(235.961 263.314)" fill="#fff"/>
          <circle id="Ellipse_3027" data-name="Ellipse 3027" cx="5.127" cy="5.127" r="5.127" transform="translate(288.397 263.314)" fill="#fff"/>
          <circle id="Ellipse_3028" data-name="Ellipse 3028" cx="5.127" cy="5.127" r="5.127" transform="translate(262.174 263.314)" fill="#fff"/>
          <circle id="Ellipse_3029" data-name="Ellipse 3029" cx="5.127" cy="5.127" r="5.127" transform="translate(0 287.258)" fill="#fff"/>
          <circle id="Ellipse_3030" data-name="Ellipse 3030" cx="5.127" cy="5.127" r="5.127" transform="translate(52.437 287.258)" fill="#fff"/>
          <circle id="Ellipse_3031" data-name="Ellipse 3031" cx="5.127" cy="5.127" r="5.127" transform="translate(26.223 287.258)" fill="#fff"/>
          <circle id="Ellipse_3032" data-name="Ellipse 3032" cx="5.127" cy="5.127" r="5.127" transform="translate(0 311.193)" fill="#fff"/>
          <circle id="Ellipse_3033" data-name="Ellipse 3033" cx="5.127" cy="5.127" r="5.127" transform="translate(52.437 311.193)" fill="#fff"/>
          <circle id="Ellipse_3034" data-name="Ellipse 3034" cx="5.127" cy="5.127" r="5.127" transform="translate(26.223 311.193)" fill="#fff"/>
          <circle id="Ellipse_3035" data-name="Ellipse 3035" cx="5.127" cy="5.127" r="5.127" transform="translate(0 335.128)" fill="#fff"/>
          <circle id="Ellipse_3036" data-name="Ellipse 3036" cx="5.127" cy="5.127" r="5.127" transform="translate(52.437 335.128)" fill="#fff"/>
          <circle id="Ellipse_3037" data-name="Ellipse 3037" cx="5.127" cy="5.127" r="5.127" transform="translate(26.223 335.128)" fill="#fff"/>
          <circle id="Ellipse_3038" data-name="Ellipse 3038" cx="5.127" cy="5.127" r="5.127" transform="translate(78.651 287.258)" fill="#fff"/>
          <circle id="Ellipse_3039" data-name="Ellipse 3039" cx="5.127" cy="5.127" r="5.127" transform="translate(131.087 287.258)" fill="#fff"/>
          <circle id="Ellipse_3040" data-name="Ellipse 3040" cx="5.127" cy="5.127" r="5.127" transform="translate(104.873 287.258)" fill="#fff"/>
          <circle id="Ellipse_3041" data-name="Ellipse 3041" cx="5.127" cy="5.127" r="5.127" transform="translate(78.651 311.193)" fill="#fff"/>
          <circle id="Ellipse_3042" data-name="Ellipse 3042" cx="5.127" cy="5.127" r="5.127" transform="translate(131.087 311.193)" fill="#fff"/>
          <circle id="Ellipse_3043" data-name="Ellipse 3043" cx="5.127" cy="5.127" r="5.127" transform="translate(104.873 311.193)" fill="#fff"/>
          <circle id="Ellipse_3044" data-name="Ellipse 3044" cx="5.127" cy="5.127" r="5.127" transform="translate(78.651 335.128)" fill="#fff"/>
          <circle id="Ellipse_3045" data-name="Ellipse 3045" cx="5.127" cy="5.127" r="5.127" transform="translate(131.087 335.128)" fill="#fff"/>
          <circle id="Ellipse_3046" data-name="Ellipse 3046" cx="5.127" cy="5.127" r="5.127" transform="translate(104.873 335.128)" fill="#fff"/>
          <circle id="Ellipse_3047" data-name="Ellipse 3047" cx="5.127" cy="5.127" r="5.127" transform="translate(157.31 287.258)" fill="#fff"/>
          <circle id="Ellipse_3048" data-name="Ellipse 3048" cx="5.127" cy="5.127" r="5.127" transform="translate(209.747 287.258)" fill="#fff"/>
          <circle id="Ellipse_3049" data-name="Ellipse 3049" cx="5.127" cy="5.127" r="5.127" transform="translate(183.524 287.258)" fill="#fff"/>
          <circle id="Ellipse_3050" data-name="Ellipse 3050" cx="5.127" cy="5.127" r="5.127" transform="translate(157.31 311.193)" fill="#fff"/>
          <circle id="Ellipse_3051" data-name="Ellipse 3051" cx="5.127" cy="5.127" r="5.127" transform="translate(209.747 311.193)" fill="#fff"/>
          <circle id="Ellipse_3052" data-name="Ellipse 3052" cx="5.127" cy="5.127" r="5.127" transform="translate(183.524 311.193)" fill="#fff"/>
          <circle id="Ellipse_3053" data-name="Ellipse 3053" cx="5.127" cy="5.127" r="5.127" transform="translate(157.31 335.128)" fill="#fff"/>
          <circle id="Ellipse_3054" data-name="Ellipse 3054" cx="5.127" cy="5.127" r="5.127" transform="translate(209.747 335.128)" fill="#fff"/>
          <circle id="Ellipse_3055" data-name="Ellipse 3055" cx="5.127" cy="5.127" r="5.127" transform="translate(183.524 335.128)" fill="#fff"/>
          <circle id="Ellipse_3056" data-name="Ellipse 3056" cx="5.127" cy="5.127" r="5.127" transform="translate(235.961 287.258)" fill="#fff"/>
          <circle id="Ellipse_3057" data-name="Ellipse 3057" cx="5.127" cy="5.127" r="5.127" transform="translate(288.397 287.258)" fill="#fff"/>
          <circle id="Ellipse_3058" data-name="Ellipse 3058" cx="5.127" cy="5.127" r="5.127" transform="translate(262.174 287.258)" fill="#fff"/>
          <circle id="Ellipse_3059" data-name="Ellipse 3059" cx="5.127" cy="5.127" r="5.127" transform="translate(235.961 311.193)" fill="#fff"/>
          <circle id="Ellipse_3060" data-name="Ellipse 3060" cx="5.127" cy="5.127" r="5.127" transform="translate(288.397 311.193)" fill="#fff"/>
          <circle id="Ellipse_3061" data-name="Ellipse 3061" cx="5.127" cy="5.127" r="5.127" transform="translate(262.174 311.193)" fill="#fff"/>
          <circle id="Ellipse_3062" data-name="Ellipse 3062" cx="5.127" cy="5.127" r="5.127" transform="translate(235.961 335.128)" fill="#fff"/>
          <circle id="Ellipse_3063" data-name="Ellipse 3063" cx="5.127" cy="5.127" r="5.127" transform="translate(288.397 335.128)" fill="#fff"/>
          <circle id="Ellipse_3064" data-name="Ellipse 3064" cx="5.127" cy="5.127" r="5.127" transform="translate(262.174 335.128)" fill="#fff"/>
        </g>
      </g>
    </g>
  </g>
</svg>
