<svg xmlns="http://www.w3.org/2000/svg" xmlns:xlink="http://www.w3.org/1999/xlink" viewBox="0 0 176 176">
  <defs>
    <clipPath id="clip-path">
      <circle id="mask" cx="88" cy="88" r="88" fill="none"/>
    </clipPath>
  </defs>
  <g id="Layer_2" data-name="Layer 2" transform="translate(-17 -58)">
    <g id="Layer_1" data-name="Layer 1" transform="translate(17 58)">
      <g id="Group_11" data-name="Group 11" clip-path="url(#clip-path)">
        <g id="dots" transform="translate(-9.578 -32.678)">
          <circle id="Ellipse_3245" data-name="Ellipse 3245" cx="3.347" cy="3.347" r="3.347" transform="translate(0 0)" fill="#f2e5d6"/>
          <circle id="Ellipse_3246" data-name="Ellipse 3246" cx="3.347" cy="3.347" r="3.347" transform="translate(34.228 0)" fill="#f2e5d6"/>
          <circle id="Ellipse_3247" data-name="Ellipse 3247" cx="3.347" cy="3.347" r="3.347" transform="translate(17.117 0)" fill="#f2e5d6"/>
          <circle id="Ellipse_3248" data-name="Ellipse 3248" cx="3.347" cy="3.347" r="3.347" transform="translate(0 15.629)" fill="#f2e5d6"/>
          <circle id="Ellipse_3249" data-name="Ellipse 3249" cx="3.347" cy="3.347" r="3.347" transform="translate(34.228 15.629)" fill="#f2e5d6"/>
          <circle id="Ellipse_3250" data-name="Ellipse 3250" cx="3.347" cy="3.347" r="3.347" transform="translate(17.117 15.629)" fill="#f2e5d6"/>
          <circle id="Ellipse_3251" data-name="Ellipse 3251" cx="3.347" cy="3.347" r="3.347" transform="translate(0 31.253)" fill="#f2e5d6"/>
          <circle id="Ellipse_3252" data-name="Ellipse 3252" cx="3.347" cy="3.347" r="3.347" transform="translate(34.228 31.253)" fill="#f2e5d6"/>
          <circle id="Ellipse_3253" data-name="Ellipse 3253" cx="3.347" cy="3.347" r="3.347" transform="translate(17.117 31.253)" fill="#f2e5d6"/>
          <circle id="Ellipse_3254" data-name="Ellipse 3254" cx="3.347" cy="3.347" r="3.347" transform="translate(51.339 0)" fill="#f2e5d6"/>
          <circle id="Ellipse_3255" data-name="Ellipse 3255" cx="3.347" cy="3.347" r="3.347" transform="translate(85.567 0)" fill="#f2e5d6"/>
          <circle id="Ellipse_3256" data-name="Ellipse 3256" cx="3.347" cy="3.347" r="3.347" transform="translate(68.456 0)" fill="#f2e5d6"/>
          <circle id="Ellipse_3257" data-name="Ellipse 3257" cx="3.347" cy="3.347" r="3.347" transform="translate(51.339 15.629)" fill="#f2e5d6"/>
          <circle id="Ellipse_3258" data-name="Ellipse 3258" cx="3.347" cy="3.347" r="3.347" transform="translate(85.567 15.629)" fill="#f2e5d6"/>
          <circle id="Ellipse_3259" data-name="Ellipse 3259" cx="3.347" cy="3.347" r="3.347" transform="translate(68.456 15.629)" fill="#f2e5d6"/>
          <circle id="Ellipse_3260" data-name="Ellipse 3260" cx="3.347" cy="3.347" r="3.347" transform="translate(51.339 31.253)" fill="#f2e5d6"/>
          <circle id="Ellipse_3261" data-name="Ellipse 3261" cx="3.347" cy="3.347" r="3.347" transform="translate(85.567 31.253)" fill="#f2e5d6"/>
          <circle id="Ellipse_3262" data-name="Ellipse 3262" cx="3.347" cy="3.347" r="3.347" transform="translate(68.456 31.253)" fill="#f2e5d6"/>
          <circle id="Ellipse_3263" data-name="Ellipse 3263" cx="3.347" cy="3.347" r="3.347" transform="translate(102.683 0)" fill="#f2e5d6"/>
          <circle id="Ellipse_3264" data-name="Ellipse 3264" cx="3.347" cy="3.347" r="3.347" transform="translate(136.911 0)" fill="#f2e5d6"/>
          <circle id="Ellipse_3265" data-name="Ellipse 3265" cx="3.347" cy="3.347" r="3.347" transform="translate(119.794 0)" fill="#f2e5d6"/>
          <circle id="Ellipse_3266" data-name="Ellipse 3266" cx="3.347" cy="3.347" r="3.347" transform="translate(102.683 15.629)" fill="#f2e5d6"/>
          <circle id="Ellipse_3267" data-name="Ellipse 3267" cx="3.347" cy="3.347" r="3.347" transform="translate(136.911 15.629)" fill="#f2e5d6"/>
          <circle id="Ellipse_3268" data-name="Ellipse 3268" cx="3.347" cy="3.347" r="3.347" transform="translate(119.794 15.629)" fill="#f2e5d6"/>
          <circle id="Ellipse_3269" data-name="Ellipse 3269" cx="3.347" cy="3.347" r="3.347" transform="translate(102.683 31.253)" fill="#f2e5d6"/>
          <circle id="Ellipse_3270" data-name="Ellipse 3270" cx="3.347" cy="3.347" r="3.347" transform="translate(136.911 31.253)" fill="#f2e5d6"/>
          <circle id="Ellipse_3271" data-name="Ellipse 3271" cx="3.347" cy="3.347" r="3.347" transform="translate(119.794 31.253)" fill="#f2e5d6"/>
          <circle id="Ellipse_3272" data-name="Ellipse 3272" cx="3.347" cy="3.347" r="3.347" transform="translate(154.022 0)" fill="#f2e5d6"/>
          <circle id="Ellipse_3273" data-name="Ellipse 3273" cx="3.347" cy="3.347" r="3.347" transform="translate(188.25 0)" fill="#f2e5d6"/>
          <circle id="Ellipse_3274" data-name="Ellipse 3274" cx="3.347" cy="3.347" r="3.347" transform="translate(171.133 0)" fill="#f2e5d6"/>
          <circle id="Ellipse_3275" data-name="Ellipse 3275" cx="3.347" cy="3.347" r="3.347" transform="translate(154.022 15.629)" fill="#f2e5d6"/>
          <circle id="Ellipse_3276" data-name="Ellipse 3276" cx="3.347" cy="3.347" r="3.347" transform="translate(188.25 15.629)" fill="#f2e5d6"/>
          <circle id="Ellipse_3277" data-name="Ellipse 3277" cx="3.347" cy="3.347" r="3.347" transform="translate(171.133 15.629)" fill="#f2e5d6"/>
          <circle id="Ellipse_3278" data-name="Ellipse 3278" cx="3.347" cy="3.347" r="3.347" transform="translate(154.022 31.253)" fill="#f2e5d6"/>
          <circle id="Ellipse_3279" data-name="Ellipse 3279" cx="3.347" cy="3.347" r="3.347" transform="translate(188.25 31.253)" fill="#f2e5d6"/>
          <circle id="Ellipse_3280" data-name="Ellipse 3280" cx="3.347" cy="3.347" r="3.347" transform="translate(171.133 31.253)" fill="#f2e5d6"/>
          <circle id="Ellipse_3281" data-name="Ellipse 3281" cx="3.347" cy="3.347" r="3.347" transform="translate(0 46.877)" fill="#f2e5d6"/>
          <circle id="Ellipse_3282" data-name="Ellipse 3282" cx="3.347" cy="3.347" r="3.347" transform="translate(34.228 46.877)" fill="#f2e5d6"/>
          <circle id="Ellipse_3283" data-name="Ellipse 3283" cx="3.347" cy="3.347" r="3.347" transform="translate(17.117 46.877)" fill="#f2e5d6"/>
          <circle id="Ellipse_3284" data-name="Ellipse 3284" cx="3.347" cy="3.347" r="3.347" transform="translate(0 62.5)" fill="#f2e5d6"/>
          <circle id="Ellipse_3285" data-name="Ellipse 3285" cx="3.347" cy="3.347" r="3.347" transform="translate(34.228 62.5)" fill="#f2e5d6"/>
          <circle id="Ellipse_3286" data-name="Ellipse 3286" cx="3.347" cy="3.347" r="3.347" transform="translate(17.117 62.5)" fill="#f2e5d6"/>
          <circle id="Ellipse_3287" data-name="Ellipse 3287" cx="3.347" cy="3.347" r="3.347" transform="translate(0 78.129)" fill="#f2e5d6"/>
          <circle id="Ellipse_3288" data-name="Ellipse 3288" cx="3.347" cy="3.347" r="3.347" transform="translate(34.228 78.129)" fill="#f2e5d6"/>
          <circle id="Ellipse_3289" data-name="Ellipse 3289" cx="3.347" cy="3.347" r="3.347" transform="translate(17.117 78.129)" fill="#f2e5d6"/>
          <circle id="Ellipse_3290" data-name="Ellipse 3290" cx="3.347" cy="3.347" r="3.347" transform="translate(51.339 46.877)" fill="#f2e5d6"/>
          <circle id="Ellipse_3291" data-name="Ellipse 3291" cx="3.347" cy="3.347" r="3.347" transform="translate(85.567 46.877)" fill="#f2e5d6"/>
          <circle id="Ellipse_3292" data-name="Ellipse 3292" cx="3.347" cy="3.347" r="3.347" transform="translate(68.456 46.877)" fill="#f2e5d6"/>
          <circle id="Ellipse_3293" data-name="Ellipse 3293" cx="3.347" cy="3.347" r="3.347" transform="translate(51.339 62.5)" fill="#f2e5d6"/>
          <circle id="Ellipse_3294" data-name="Ellipse 3294" cx="3.347" cy="3.347" r="3.347" transform="translate(85.567 62.5)" fill="#f2e5d6"/>
          <circle id="Ellipse_3295" data-name="Ellipse 3295" cx="3.347" cy="3.347" r="3.347" transform="translate(68.456 62.5)" fill="#f2e5d6"/>
          <circle id="Ellipse_3296" data-name="Ellipse 3296" cx="3.347" cy="3.347" r="3.347" transform="translate(51.339 78.129)" fill="#f2e5d6"/>
          <circle id="Ellipse_3297" data-name="Ellipse 3297" cx="3.347" cy="3.347" r="3.347" transform="translate(85.567 78.129)" fill="#f2e5d6"/>
          <circle id="Ellipse_3298" data-name="Ellipse 3298" cx="3.347" cy="3.347" r="3.347" transform="translate(68.456 78.129)" fill="#f2e5d6"/>
          <circle id="Ellipse_3299" data-name="Ellipse 3299" cx="3.347" cy="3.347" r="3.347" transform="translate(102.683 46.877)" fill="#f2e5d6"/>
          <circle id="Ellipse_3300" data-name="Ellipse 3300" cx="3.347" cy="3.347" r="3.347" transform="translate(136.911 46.877)" fill="#f2e5d6"/>
          <circle id="Ellipse_3301" data-name="Ellipse 3301" cx="3.347" cy="3.347" r="3.347" transform="translate(119.794 46.877)" fill="#f2e5d6"/>
          <circle id="Ellipse_3302" data-name="Ellipse 3302" cx="3.347" cy="3.347" r="3.347" transform="translate(102.683 62.5)" fill="#f2e5d6"/>
          <circle id="Ellipse_3303" data-name="Ellipse 3303" cx="3.347" cy="3.347" r="3.347" transform="translate(136.911 62.5)" fill="#f2e5d6"/>
          <circle id="Ellipse_3304" data-name="Ellipse 3304" cx="3.347" cy="3.347" r="3.347" transform="translate(119.794 62.5)" fill="#f2e5d6"/>
          <circle id="Ellipse_3305" data-name="Ellipse 3305" cx="3.347" cy="3.347" r="3.347" transform="translate(102.683 78.129)" fill="#f2e5d6"/>
          <circle id="Ellipse_3306" data-name="Ellipse 3306" cx="3.347" cy="3.347" r="3.347" transform="translate(136.911 78.129)" fill="#f2e5d6"/>
          <circle id="Ellipse_3307" data-name="Ellipse 3307" cx="3.347" cy="3.347" r="3.347" transform="translate(119.794 78.129)" fill="#f2e5d6"/>
          <circle id="Ellipse_3308" data-name="Ellipse 3308" cx="3.347" cy="3.347" r="3.347" transform="translate(154.022 46.877)" fill="#f2e5d6"/>
          <circle id="Ellipse_3309" data-name="Ellipse 3309" cx="3.347" cy="3.347" r="3.347" transform="translate(188.25 46.877)" fill="#f2e5d6"/>
          <circle id="Ellipse_3310" data-name="Ellipse 3310" cx="3.347" cy="3.347" r="3.347" transform="translate(171.133 46.877)" fill="#f2e5d6"/>
          <circle id="Ellipse_3311" data-name="Ellipse 3311" cx="3.347" cy="3.347" r="3.347" transform="translate(154.022 62.5)" fill="#f2e5d6"/>
          <circle id="Ellipse_3312" data-name="Ellipse 3312" cx="3.347" cy="3.347" r="3.347" transform="translate(188.25 62.5)" fill="#f2e5d6"/>
          <circle id="Ellipse_3313" data-name="Ellipse 3313" cx="3.347" cy="3.347" r="3.347" transform="translate(171.133 62.5)" fill="#f2e5d6"/>
          <circle id="Ellipse_3314" data-name="Ellipse 3314" cx="3.347" cy="3.347" r="3.347" transform="translate(154.022 78.129)" fill="#f2e5d6"/>
          <circle id="Ellipse_3315" data-name="Ellipse 3315" cx="3.347" cy="3.347" r="3.347" transform="translate(188.25 78.129)" fill="#f2e5d6"/>
          <circle id="Ellipse_3316" data-name="Ellipse 3316" cx="3.347" cy="3.347" r="3.347" transform="translate(171.133 78.129)" fill="#f2e5d6"/>
          <circle id="Ellipse_3317" data-name="Ellipse 3317" cx="3.347" cy="3.347" r="3.347" transform="translate(0 93.753)" fill="#f2e5d6"/>
          <circle id="Ellipse_3318" data-name="Ellipse 3318" cx="3.347" cy="3.347" r="3.347" transform="translate(34.228 93.753)" fill="#f2e5d6"/>
          <circle id="Ellipse_3319" data-name="Ellipse 3319" cx="3.347" cy="3.347" r="3.347" transform="translate(17.117 93.753)" fill="#f2e5d6"/>
          <circle id="Ellipse_3320" data-name="Ellipse 3320" cx="3.347" cy="3.347" r="3.347" transform="translate(0 109.377)" fill="#f2e5d6"/>
          <circle id="Ellipse_3321" data-name="Ellipse 3321" cx="3.347" cy="3.347" r="3.347" transform="translate(34.228 109.377)" fill="#f2e5d6"/>
          <circle id="Ellipse_3322" data-name="Ellipse 3322" cx="3.347" cy="3.347" r="3.347" transform="translate(17.117 109.377)" fill="#f2e5d6"/>
          <circle id="Ellipse_3323" data-name="Ellipse 3323" cx="3.347" cy="3.347" r="3.347" transform="translate(0 125.006)" fill="#f2e5d6"/>
          <circle id="Ellipse_3324" data-name="Ellipse 3324" cx="3.347" cy="3.347" r="3.347" transform="translate(34.228 125.006)" fill="#f2e5d6"/>
          <circle id="Ellipse_3325" data-name="Ellipse 3325" cx="3.347" cy="3.347" r="3.347" transform="translate(17.117 125.006)" fill="#f2e5d6"/>
          <circle id="Ellipse_3326" data-name="Ellipse 3326" cx="3.347" cy="3.347" r="3.347" transform="translate(51.339 93.753)" fill="#f2e5d6"/>
          <circle id="Ellipse_3327" data-name="Ellipse 3327" cx="3.347" cy="3.347" r="3.347" transform="translate(85.567 93.753)" fill="#f2e5d6"/>
          <circle id="Ellipse_3328" data-name="Ellipse 3328" cx="3.347" cy="3.347" r="3.347" transform="translate(68.456 93.753)" fill="#f2e5d6"/>
          <circle id="Ellipse_3329" data-name="Ellipse 3329" cx="3.347" cy="3.347" r="3.347" transform="translate(51.339 109.377)" fill="#f2e5d6"/>
          <circle id="Ellipse_3330" data-name="Ellipse 3330" cx="3.347" cy="3.347" r="3.347" transform="translate(85.567 109.377)" fill="#f2e5d6"/>
          <circle id="Ellipse_3331" data-name="Ellipse 3331" cx="3.347" cy="3.347" r="3.347" transform="translate(68.456 109.377)" fill="#f2e5d6"/>
          <circle id="Ellipse_3332" data-name="Ellipse 3332" cx="3.347" cy="3.347" r="3.347" transform="translate(51.339 125.006)" fill="#f2e5d6"/>
          <circle id="Ellipse_3333" data-name="Ellipse 3333" cx="3.347" cy="3.347" r="3.347" transform="translate(85.567 125.006)" fill="#f2e5d6"/>
          <circle id="Ellipse_3334" data-name="Ellipse 3334" cx="3.347" cy="3.347" r="3.347" transform="translate(68.456 125.006)" fill="#f2e5d6"/>
          <circle id="Ellipse_3335" data-name="Ellipse 3335" cx="3.347" cy="3.347" r="3.347" transform="translate(102.683 93.753)" fill="#f2e5d6"/>
          <circle id="Ellipse_3336" data-name="Ellipse 3336" cx="3.347" cy="3.347" r="3.347" transform="translate(136.911 93.753)" fill="#f2e5d6"/>
          <circle id="Ellipse_3337" data-name="Ellipse 3337" cx="3.347" cy="3.347" r="3.347" transform="translate(119.794 93.753)" fill="#f2e5d6"/>
          <circle id="Ellipse_3338" data-name="Ellipse 3338" cx="3.347" cy="3.347" r="3.347" transform="translate(102.683 109.377)" fill="#f2e5d6"/>
          <circle id="Ellipse_3339" data-name="Ellipse 3339" cx="3.347" cy="3.347" r="3.347" transform="translate(136.911 109.377)" fill="#f2e5d6"/>
          <circle id="Ellipse_3340" data-name="Ellipse 3340" cx="3.347" cy="3.347" r="3.347" transform="translate(119.794 109.377)" fill="#f2e5d6"/>
          <circle id="Ellipse_3341" data-name="Ellipse 3341" cx="3.347" cy="3.347" r="3.347" transform="translate(102.683 125.006)" fill="#f2e5d6"/>
          <circle id="Ellipse_3342" data-name="Ellipse 3342" cx="3.347" cy="3.347" r="3.347" transform="translate(136.911 125.006)" fill="#f2e5d6"/>
          <circle id="Ellipse_3343" data-name="Ellipse 3343" cx="3.347" cy="3.347" r="3.347" transform="translate(119.794 125.006)" fill="#f2e5d6"/>
          <circle id="Ellipse_3344" data-name="Ellipse 3344" cx="3.347" cy="3.347" r="3.347" transform="translate(154.022 93.753)" fill="#f2e5d6"/>
          <circle id="Ellipse_3345" data-name="Ellipse 3345" cx="3.347" cy="3.347" r="3.347" transform="translate(188.25 93.753)" fill="#f2e5d6"/>
          <circle id="Ellipse_3346" data-name="Ellipse 3346" cx="3.347" cy="3.347" r="3.347" transform="translate(171.133 93.753)" fill="#f2e5d6"/>
          <circle id="Ellipse_3347" data-name="Ellipse 3347" cx="3.347" cy="3.347" r="3.347" transform="translate(154.022 109.377)" fill="#f2e5d6"/>
          <circle id="Ellipse_3348" data-name="Ellipse 3348" cx="3.347" cy="3.347" r="3.347" transform="translate(188.25 109.377)" fill="#f2e5d6"/>
          <circle id="Ellipse_3349" data-name="Ellipse 3349" cx="3.347" cy="3.347" r="3.347" transform="translate(171.133 109.377)" fill="#f2e5d6"/>
          <circle id="Ellipse_3350" data-name="Ellipse 3350" cx="3.347" cy="3.347" r="3.347" transform="translate(154.022 125.006)" fill="#f2e5d6"/>
          <circle id="Ellipse_3351" data-name="Ellipse 3351" cx="3.347" cy="3.347" r="3.347" transform="translate(188.25 125.006)" fill="#f2e5d6"/>
          <circle id="Ellipse_3352" data-name="Ellipse 3352" cx="3.347" cy="3.347" r="3.347" transform="translate(171.133 125.006)" fill="#f2e5d6"/>
          <circle id="Ellipse_3353" data-name="Ellipse 3353" cx="3.347" cy="3.347" r="3.347" transform="translate(0 140.63)" fill="#f2e5d6"/>
          <circle id="Ellipse_3354" data-name="Ellipse 3354" cx="3.347" cy="3.347" r="3.347" transform="translate(34.228 140.63)" fill="#f2e5d6"/>
          <circle id="Ellipse_3355" data-name="Ellipse 3355" cx="3.347" cy="3.347" r="3.347" transform="translate(17.117 140.63)" fill="#f2e5d6"/>
          <circle id="Ellipse_3356" data-name="Ellipse 3356" cx="3.347" cy="3.347" r="3.347" transform="translate(0 156.253)" fill="#f2e5d6"/>
          <circle id="Ellipse_3357" data-name="Ellipse 3357" cx="3.347" cy="3.347" r="3.347" transform="translate(34.228 156.253)" fill="#f2e5d6"/>
          <circle id="Ellipse_3358" data-name="Ellipse 3358" cx="3.347" cy="3.347" r="3.347" transform="translate(17.117 156.253)" fill="#f2e5d6"/>
          <circle id="Ellipse_3359" data-name="Ellipse 3359" cx="3.347" cy="3.347" r="3.347" transform="translate(0 171.877)" fill="#f2e5d6"/>
          <circle id="Ellipse_3360" data-name="Ellipse 3360" cx="3.347" cy="3.347" r="3.347" transform="translate(34.228 171.877)" fill="#f2e5d6"/>
          <circle id="Ellipse_3361" data-name="Ellipse 3361" cx="3.347" cy="3.347" r="3.347" transform="translate(17.117 171.877)" fill="#f2e5d6"/>
          <circle id="Ellipse_3362" data-name="Ellipse 3362" cx="3.347" cy="3.347" r="3.347" transform="translate(51.339 140.63)" fill="#f2e5d6"/>
          <circle id="Ellipse_3363" data-name="Ellipse 3363" cx="3.347" cy="3.347" r="3.347" transform="translate(85.567 140.63)" fill="#f2e5d6"/>
          <circle id="Ellipse_3364" data-name="Ellipse 3364" cx="3.347" cy="3.347" r="3.347" transform="translate(68.456 140.63)" fill="#f2e5d6"/>
          <circle id="Ellipse_3365" data-name="Ellipse 3365" cx="3.347" cy="3.347" r="3.347" transform="translate(51.339 156.253)" fill="#f2e5d6"/>
          <circle id="Ellipse_3366" data-name="Ellipse 3366" cx="3.347" cy="3.347" r="3.347" transform="translate(85.567 156.253)" fill="#f2e5d6"/>
          <circle id="Ellipse_3367" data-name="Ellipse 3367" cx="3.347" cy="3.347" r="3.347" transform="translate(68.456 156.253)" fill="#f2e5d6"/>
          <circle id="Ellipse_3368" data-name="Ellipse 3368" cx="3.347" cy="3.347" r="3.347" transform="translate(51.339 171.877)" fill="#f2e5d6"/>
          <circle id="Ellipse_3369" data-name="Ellipse 3369" cx="3.347" cy="3.347" r="3.347" transform="translate(85.567 171.877)" fill="#f2e5d6"/>
          <circle id="Ellipse_3370" data-name="Ellipse 3370" cx="3.347" cy="3.347" r="3.347" transform="translate(68.456 171.877)" fill="#f2e5d6"/>
          <circle id="Ellipse_3371" data-name="Ellipse 3371" cx="3.347" cy="3.347" r="3.347" transform="translate(102.683 140.63)" fill="#f2e5d6"/>
          <circle id="Ellipse_3372" data-name="Ellipse 3372" cx="3.347" cy="3.347" r="3.347" transform="translate(136.911 140.63)" fill="#f2e5d6"/>
          <circle id="Ellipse_3373" data-name="Ellipse 3373" cx="3.347" cy="3.347" r="3.347" transform="translate(119.794 140.63)" fill="#f2e5d6"/>
          <circle id="Ellipse_3374" data-name="Ellipse 3374" cx="3.347" cy="3.347" r="3.347" transform="translate(102.683 156.253)" fill="#f2e5d6"/>
          <circle id="Ellipse_3375" data-name="Ellipse 3375" cx="3.347" cy="3.347" r="3.347" transform="translate(136.911 156.253)" fill="#f2e5d6"/>
          <circle id="Ellipse_3376" data-name="Ellipse 3376" cx="3.347" cy="3.347" r="3.347" transform="translate(119.794 156.253)" fill="#f2e5d6"/>
          <circle id="Ellipse_3377" data-name="Ellipse 3377" cx="3.347" cy="3.347" r="3.347" transform="translate(102.683 171.877)" fill="#f2e5d6"/>
          <circle id="Ellipse_3378" data-name="Ellipse 3378" cx="3.347" cy="3.347" r="3.347" transform="translate(136.911 171.877)" fill="#f2e5d6"/>
          <circle id="Ellipse_3379" data-name="Ellipse 3379" cx="3.347" cy="3.347" r="3.347" transform="translate(119.794 171.877)" fill="#f2e5d6"/>
          <circle id="Ellipse_3380" data-name="Ellipse 3380" cx="3.347" cy="3.347" r="3.347" transform="translate(154.022 140.63)" fill="#f2e5d6"/>
          <circle id="Ellipse_3381" data-name="Ellipse 3381" cx="3.347" cy="3.347" r="3.347" transform="translate(188.25 140.63)" fill="#f2e5d6"/>
          <circle id="Ellipse_3382" data-name="Ellipse 3382" cx="3.347" cy="3.347" r="3.347" transform="translate(171.133 140.63)" fill="#f2e5d6"/>
          <circle id="Ellipse_3383" data-name="Ellipse 3383" cx="3.347" cy="3.347" r="3.347" transform="translate(154.022 156.253)" fill="#f2e5d6"/>
          <circle id="Ellipse_3384" data-name="Ellipse 3384" cx="3.347" cy="3.347" r="3.347" transform="translate(188.25 156.253)" fill="#f2e5d6"/>
          <circle id="Ellipse_3385" data-name="Ellipse 3385" cx="3.347" cy="3.347" r="3.347" transform="translate(171.133 156.253)" fill="#f2e5d6"/>
          <circle id="Ellipse_3386" data-name="Ellipse 3386" cx="3.347" cy="3.347" r="3.347" transform="translate(154.022 171.877)" fill="#f2e5d6"/>
          <circle id="Ellipse_3387" data-name="Ellipse 3387" cx="3.347" cy="3.347" r="3.347" transform="translate(188.25 171.877)" fill="#f2e5d6"/>
          <circle id="Ellipse_3388" data-name="Ellipse 3388" cx="3.347" cy="3.347" r="3.347" transform="translate(171.133 171.877)" fill="#f2e5d6"/>
          <circle id="Ellipse_3389" data-name="Ellipse 3389" cx="3.347" cy="3.347" r="3.347" transform="translate(0 187.506)" fill="#f2e5d6"/>
          <circle id="Ellipse_3390" data-name="Ellipse 3390" cx="3.347" cy="3.347" r="3.347" transform="translate(34.228 187.506)" fill="#f2e5d6"/>
          <circle id="Ellipse_3391" data-name="Ellipse 3391" cx="3.347" cy="3.347" r="3.347" transform="translate(17.117 187.506)" fill="#f2e5d6"/>
          <circle id="Ellipse_3392" data-name="Ellipse 3392" cx="3.347" cy="3.347" r="3.347" transform="translate(0 203.13)" fill="#f2e5d6"/>
          <circle id="Ellipse_3393" data-name="Ellipse 3393" cx="3.347" cy="3.347" r="3.347" transform="translate(34.228 203.13)" fill="#f2e5d6"/>
          <circle id="Ellipse_3394" data-name="Ellipse 3394" cx="3.347" cy="3.347" r="3.347" transform="translate(17.117 203.13)" fill="#f2e5d6"/>
          <circle id="Ellipse_3395" data-name="Ellipse 3395" cx="3.347" cy="3.347" r="3.347" transform="translate(0 218.754)" fill="#f2e5d6"/>
          <circle id="Ellipse_3396" data-name="Ellipse 3396" cx="3.347" cy="3.347" r="3.347" transform="translate(34.228 218.754)" fill="#f2e5d6"/>
          <circle id="Ellipse_3397" data-name="Ellipse 3397" cx="3.347" cy="3.347" r="3.347" transform="translate(17.117 218.754)" fill="#f2e5d6"/>
          <circle id="Ellipse_3398" data-name="Ellipse 3398" cx="3.347" cy="3.347" r="3.347" transform="translate(51.339 187.506)" fill="#f2e5d6"/>
          <circle id="Ellipse_3399" data-name="Ellipse 3399" cx="3.347" cy="3.347" r="3.347" transform="translate(85.567 187.506)" fill="#f2e5d6"/>
          <circle id="Ellipse_3400" data-name="Ellipse 3400" cx="3.347" cy="3.347" r="3.347" transform="translate(68.456 187.506)" fill="#f2e5d6"/>
          <circle id="Ellipse_3401" data-name="Ellipse 3401" cx="3.347" cy="3.347" r="3.347" transform="translate(51.339 203.13)" fill="#f2e5d6"/>
          <circle id="Ellipse_3402" data-name="Ellipse 3402" cx="3.347" cy="3.347" r="3.347" transform="translate(85.567 203.13)" fill="#f2e5d6"/>
          <circle id="Ellipse_3403" data-name="Ellipse 3403" cx="3.347" cy="3.347" r="3.347" transform="translate(68.456 203.13)" fill="#f2e5d6"/>
          <circle id="Ellipse_3404" data-name="Ellipse 3404" cx="3.347" cy="3.347" r="3.347" transform="translate(51.339 218.754)" fill="#f2e5d6"/>
          <circle id="Ellipse_3405" data-name="Ellipse 3405" cx="3.347" cy="3.347" r="3.347" transform="translate(85.567 218.754)" fill="#f2e5d6"/>
          <circle id="Ellipse_3406" data-name="Ellipse 3406" cx="3.347" cy="3.347" r="3.347" transform="translate(68.456 218.754)" fill="#f2e5d6"/>
          <circle id="Ellipse_3407" data-name="Ellipse 3407" cx="3.347" cy="3.347" r="3.347" transform="translate(102.683 187.506)" fill="#f2e5d6"/>
          <circle id="Ellipse_3408" data-name="Ellipse 3408" cx="3.347" cy="3.347" r="3.347" transform="translate(136.911 187.506)" fill="#f2e5d6"/>
          <circle id="Ellipse_3409" data-name="Ellipse 3409" cx="3.347" cy="3.347" r="3.347" transform="translate(119.794 187.506)" fill="#f2e5d6"/>
          <circle id="Ellipse_3410" data-name="Ellipse 3410" cx="3.347" cy="3.347" r="3.347" transform="translate(102.683 203.13)" fill="#f2e5d6"/>
          <circle id="Ellipse_3411" data-name="Ellipse 3411" cx="3.347" cy="3.347" r="3.347" transform="translate(136.911 203.13)" fill="#f2e5d6"/>
          <circle id="Ellipse_3412" data-name="Ellipse 3412" cx="3.347" cy="3.347" r="3.347" transform="translate(119.794 203.13)" fill="#f2e5d6"/>
          <circle id="Ellipse_3413" data-name="Ellipse 3413" cx="3.347" cy="3.347" r="3.347" transform="translate(102.683 218.754)" fill="#f2e5d6"/>
          <circle id="Ellipse_3414" data-name="Ellipse 3414" cx="3.347" cy="3.347" r="3.347" transform="translate(136.911 218.754)" fill="#f2e5d6"/>
          <circle id="Ellipse_3415" data-name="Ellipse 3415" cx="3.347" cy="3.347" r="3.347" transform="translate(119.794 218.754)" fill="#f2e5d6"/>
          <circle id="Ellipse_3416" data-name="Ellipse 3416" cx="3.347" cy="3.347" r="3.347" transform="translate(154.022 187.506)" fill="#f2e5d6"/>
          <circle id="Ellipse_3417" data-name="Ellipse 3417" cx="3.347" cy="3.347" r="3.347" transform="translate(188.25 187.506)" fill="#f2e5d6"/>
          <circle id="Ellipse_3418" data-name="Ellipse 3418" cx="3.347" cy="3.347" r="3.347" transform="translate(171.133 187.506)" fill="#f2e5d6"/>
          <circle id="Ellipse_3419" data-name="Ellipse 3419" cx="3.347" cy="3.347" r="3.347" transform="translate(154.022 203.13)" fill="#f2e5d6"/>
          <circle id="Ellipse_3420" data-name="Ellipse 3420" cx="3.347" cy="3.347" r="3.347" transform="translate(188.25 203.13)" fill="#f2e5d6"/>
          <circle id="Ellipse_3421" data-name="Ellipse 3421" cx="3.347" cy="3.347" r="3.347" transform="translate(171.133 203.13)" fill="#f2e5d6"/>
          <circle id="Ellipse_3422" data-name="Ellipse 3422" cx="3.347" cy="3.347" r="3.347" transform="translate(154.022 218.754)" fill="#f2e5d6"/>
          <circle id="Ellipse_3423" data-name="Ellipse 3423" cx="3.347" cy="3.347" r="3.347" transform="translate(188.25 218.754)" fill="#f2e5d6"/>
          <circle id="Ellipse_3424" data-name="Ellipse 3424" cx="3.347" cy="3.347" r="3.347" transform="translate(171.133 218.754)" fill="#f2e5d6"/>
        </g>
      </g>
    </g>
  </g>
</svg>
